<?xml version="1.0" encoding="UTF-8" standalone="no"?>
<!-- Created with Inkscape (http://www.inkscape.org/) -->

<svg
   version="1.1"
   id="svg1"
   width="913.99957"
   height="247.724"
   viewBox="0 0 913.99957 247.724"
   xmlns="http://www.w3.org/2000/svg"
   xmlns:svg="http://www.w3.org/2000/svg">
  <defs
     id="defs1" />
  <g
     id="g1"
     transform="translate(-183,-516)">
    <g
       id="g2">
      <path
         style="display:inline;fill:#f9f9f9"
         d="m 591.26254,762.95934 c -2.88061,-0.5166 -10.08061,-2.49415 -16,-4.39455 -14.00473,-4.49617 -16.66119,-4.77839 -17.08209,-1.81479 L 557.8609,759 h -40.00378 c -37.56,0 -39.98327,-0.1069 -39.66818,-1.75 0.29523,-1.53952 1.86762,-1.78366 13.07332,-2.02988 L 504,754.94025 V 686.97012 619 h -11.06809 -11.0681 l 2.08914,2.93393 c 5.11025,7.17667 6.70172,20.24756 3.2955,27.06607 -2.70272,5.41023 -9.11095,8.29147 -16.94356,7.6181 -11.70773,-1.00652 -13.74788,-4.64511 -9.7117,-17.32075 4.6676,-14.65864 1.57558,-21.80715 -9.42375,-21.78693 -6.77081,0.0125 -11.22045,2.00395 -17.09959,7.65316 -8.21779,7.89639 -14.70499,20.62047 -17.55999,34.44241 C 415.29688,665.47839 415,675.57564 415,710.95784 V 755 h 14.5 c 13.83333,0 14.5,0.0919 14.5,2 0,1.96787 -0.66667,2 -41.5,2 -40.83333,0 -41.5,-0.0321 -41.5,-2 0,-1.89744 0.66667,-2 13,-2 h 13 v -68 -68 h -13 c -10.88889,0 -13,-0.24359 -13,-1.5 0,-2.28108 -1.32747,-1.81508 -4.56291,1.60178 -10.79788,11.40335 -31.55637,20.77731 -54.28113,24.51187 -7.3964,1.21551 -13.40007,1.44376 -25.65596,0.97538 -8.8,-0.3363 -17.6913,-0.88109 -19.75845,-1.21064 l -3.75844,-0.59917 0.25844,55.86039 L 253.5,754.5 l 18.75,0.27207 c 17.92191,0.26004 18.75,0.35942 18.75,2.25 0,1.94616 -0.86747,1.97793 -54,1.97793 -53.33333,0 -54,-0.0247 -54,-2 0,-1.92982 0.66667,-2 19,-2 h 19 V 639 523 h -19 c -18.33333,0 -19,-0.0702 -19,-2 0,-1.96721 0.75,-2.0041 45.75,-2.25 25.1625,-0.1375 51.7329,-0.14186 59.04534,-0.01 28.76823,0.51997 52.57537,8.95057 67.90901,24.04798 11.72181,11.54123 16.71811,23.24361 16.74136,39.21172 0.0165,11.33131 -2.07065,18.75307 -7.57695,26.94313 L 361.13278,614.5 387.56639,614.76633 414,615.03267 v 16.98366 C 414,642.67211 414.37259,649 415,649 c 0.55,0 1,-0.5863 1,-1.3029 0,-0.71659 1.80236,-5.02996 4.00526,-9.58525 5.14071,-10.63034 13.14885,-18.88518 22.62077,-23.31762 5.99516,-2.80548 7.71897,-3.14918 15.80162,-3.1506 6.44992,-10e-4 10.22858,0.50397 13.07235,1.74742 3.52029,1.53926 7.38792,1.73592 32.25,1.63987 L 532,614.92178 V 684.96089 755 h 7.5 7.5 v -21.07332 c 0,-18.69529 0.17869,-21.03684 1.58352,-20.75 0.94995,0.19396 2.93123,3.81338 4.95193,9.04621 6.20762,16.07537 14.74288,26.31151 26.96455,32.33794 16.04318,7.91081 33.77484,6.9317 43.84158,-2.42085 4.89625,-4.54887 6.96804,-9.8058 7.34613,-18.63998 0.48203,-11.26281 -1.58503,-16.74687 -8.18279,-21.70951 -5.57801,-4.19561 -8.51931,-5.45438 -30.00492,-12.84109 -21.18347,-7.28283 -28.35528,-10.88234 -33.8425,-16.98545 -7.57526,-8.4255 -10.82826,-21.03167 -8.74841,-33.9022 1.4592,-9.02976 5.45222,-16.56224 12.52206,-23.62168 9.6672,-9.65299 19.57253,-13.40809 35.42135,-13.4282 7.65909,-0.01 10.91824,0.50977 18,2.86907 12.70662,4.23325 14.82778,4.55857 17.65296,2.70744 C 636.40703,615.34242 639.73976,615 649.96482,615 H 663 v -21.54531 -21.54532 l 3.75,0.79532 c 6.75588,1.43281 16.73602,0.75861 21.15823,-1.42932 L 692,569.25092 V 592.12546 615 h 37.5 37.5 v 70 70 h 9.5 c 5.225,0 9.5,-0.24382 9.5,-0.54181 0,-0.298 -0.95582,-1.5355 -2.12405,-2.75 -4.52105,-4.70014 -6.32549,-10.58325 -6.35152,-20.70819 -0.0216,-8.39233 0.29968,-10.16 2.75535,-15.16054 5.43955,-11.0767 13.01723,-15.65 39.47681,-23.82514 33.657,-10.3989 40.15958,-13.81195 44.28446,-23.24384 2.02701,-4.63494 2.30788,-6.89837 2.32923,-18.77048 0.0357,-19.87482 -3.10035,-28.30394 -12.24607,-32.9149 -7.90145,-3.98365 -23.07567,-3.44011 -31.98112,1.14555 -7.78845,4.01049 -9.55356,10.50702 -6.96158,25.62229 2.1642,12.62062 -1.3356,17.52206 -12.51136,17.52206 -11.88634,0 -15.30563,-3.43308 -15.01576,-15.07628 0.40679,-16.33919 13.79775,-29.55587 34.34561,-33.89861 9.25295,-1.95559 32.9504,-1.41502 40.09943,0.91472 12.38948,4.03752 22.2248,11.72945 26.68988,20.8734 4.77395,9.7765 5.17471,14.87696 5.19333,66.09389 0.0191,52.44859 0.0931,53.15431 5.88892,56.15146 3.82873,1.97992 6.61294,1.96945 14.67292,-0.0552 L 921,754.75685 V 637.37843 520 h -13 c -12.33333,0 -13,-0.10256 -13,-2 0,-1.95062 0.66667,-2 27,-2 h 27 V 635.5 755 h 13 c 12.33333,0 13,0.10256 13,2 0,1.95301 -0.66667,2 -28.37288,2 -25.84272,0 -28.76322,0.17198 -32.75,1.92855 -9.0498,3.98732 -24.11871,3.55337 -33.44879,-0.96325 -5.20951,-2.52188 -9.7259,-8.33347 -12.59824,-16.21115 C 866.67615,740.58937 865.43198,738 865.06528,738 c -0.36671,0 -1.65438,2.03284 -2.86149,4.51743 -5.4121,11.13974 -16.6853,18.44386 -31.74124,20.56578 -9.75699,1.3751 -22.40899,0.486 -31.04603,-2.18171 -5.9384,-1.83418 -8.78894,-1.95545 -38.66379,-1.64484 -29.17855,0.30337 -33.20588,0.5514 -42.25273,2.60228 -7.89077,1.78879 -11.58192,2.13145 -17.5,1.62456 -23.93165,-2.04978 -34.39925,-10.72984 -36.98886,-30.67234 -0.52217,-4.02114 -0.96328,-31.27366 -0.98026,-60.56116 L 663,619 H 651.5 640 v 16.5 c 0,15.51813 -0.11256,16.5 -1.89159,16.5 -1.23261,0 -2.12768,-0.95803 -2.56926,-2.75 -0.37271,-1.5125 -2.62792,-6.88077 -5.01158,-11.92949 C 622.20451,619.69178 610.78223,612.77302 593,614.58913 c -17.65046,1.80265 -28.97293,11.92438 -28.98465,25.91087 -0.0129,15.38595 6.07183,20.12032 40.48465,31.5 30.14569,9.96862 40.61047,16.3851 46.61495,28.58194 2.94815,5.98854 3.29728,7.60283 3.31034,15.30632 0.0372,21.95219 -13.14922,38.89801 -35.42529,45.52488 -6.79998,2.02291 -20.7448,2.80025 -27.73746,1.5462 z M 726.5,757.64608 l 12,-2.2692 0.25694,-68.18844 L 739.01388,619 H 715.4779 691.94192 l 0.27904,62.25 c 0.27369,61.05599 0.31979,62.3381 2.40336,66.84299 3.59259,7.76756 9.15912,11.65143 16.87568,11.77447 1.65,0.0263 8.4,-0.97331 15,-2.22138 z m 118.62222,-2.38884 c 5.42135,-2.41409 11.70071,-8.61023 14.59115,-14.39776 4.62961,-9.2699 5.48637,-15.04637 6.02318,-40.60948 0.28008,-13.3375 0.1812,-24.25 -0.21974,-24.25 -0.40093,0 -1.62377,1.13755 -2.71742,2.5279 -2.46527,3.13409 -6.38877,5.15328 -22.56005,11.61033 -16.80646,6.71067 -19.64537,8.22603 -25.27382,13.49079 -8.18607,7.65711 -11.53007,19.74114 -9.00902,32.55538 2.20607,11.21327 7.21901,17.74602 15.77196,20.55367 5.29051,1.73671 17.97064,0.93405 23.39376,-1.48083 z M 293.57859,640.51631 c 15.81609,-3.02611 27.23922,-10.9186 33.73404,-23.30757 6.01843,-11.48026 7.16161,-17.4168 7.06889,-36.70874 -0.0905,-18.82636 -1.92995,-28.641 -6.98434,-37.26566 C 318.36547,527.82289 304.79894,522.56052 274,522.52193 c -9.625,-0.0121 -18.2875,0.30145 -19.25,0.69669 -1.63782,0.67255 -1.75,4.37599 -1.75,57.77475 v 57.05613 l 2.40039,0.91263 c 2.84643,1.08221 16.76962,2.71511 24.76164,2.90403 3.11412,0.0736 9.15157,-0.53382 13.41656,-1.34985 z m 731.48201,122.4637 C 999.09097,759.34926 978.53997,745.13363 967.98582,723.5 c -19.52156,-40.01483 -1.43953,-88.79972 39.67238,-107.03521 8.6366,-3.83082 16.6884,-5.43344 27.3817,-5.45001 11.5368,-0.0179 18.8008,1.70338 29.696,7.03661 18.8816,9.24262 32.1682,30.74631 32.2467,52.18961 l 0.017,4.741 -51.75,0.259 -51.75,0.259 -0.30347,13.5 c -0.8799,39.1425 8.58907,61.53655 29.03297,68.66283 7.3718,2.56964 26.9732,2.53012 34.7705,-0.0701 15.3054,-5.10398 25.7977,-15.37216 31.516,-30.84273 1.2346,-3.34005 2.3091,-4.75 3.6199,-4.75 2.4076,0 2.3493,1.53139 -0.309,8.11665 -6.2711,15.53509 -19.4961,27.21705 -35.5464,31.39901 -7.3192,1.90703 -22.8448,2.63525 -31.2199,1.46435 z M 1064.4931,663.75 c 0.365,-3.9875 0.1773,-11.92126 -0.4172,-17.63059 -2.3732,-22.79089 -10.9129,-31.53839 -30.7456,-31.4937 -8.2839,0.0187 -9.8013,0.33161 -15.708,3.23948 -3.7229,1.83277 -7.989,4.91351 -9.9071,7.15445 -6.8576,8.01151 -11.65295,21.60599 -13.48559,38.23036 l -0.85434,7.75 h 35.22703 35.2271 z M 510.45042,551.5934 c -9.31979,-4.05944 -12.85485,-16.28083 -7.31605,-25.29299 C 511.96991,511.92413 535,518.68288 535,535.65216 c 0,12.32677 -13.18768,20.89018 -24.54958,15.94124 z m 235,0 c -3.84477,-1.67467 -7.92685,-6.47695 -9.46355,-11.13318 -3.06493,-9.28685 3.5149,-19.83515 13.67945,-21.92986 7.29232,-1.5028 17.07137,4.11478 19.38931,11.1382 4.7531,14.40204 -9.81382,27.932 -23.60521,21.92484 z"
         id="path2" />
    </g>
  </g>
</svg>
