<?xml version="1.0" encoding="UTF-8" standalone="no"?>
<svg
   version="1.0"
   width="700.000000pt"
   height="1000.000000pt"
   viewBox="0 0 700.000000 1000.000000"
   preserveAspectRatio="xMidYMid meet"
   id="svg86"
   sodipodi:docname="statue1.svg"
   inkscape:version="1.3.2 (091e20e, 2023-11-25)"
   xmlns:inkscape="http://www.inkscape.org/namespaces/inkscape"
   xmlns:sodipodi="http://sodipodi.sourceforge.net/DTD/sodipodi-0.dtd"
   xmlns="http://www.w3.org/2000/svg"
   xmlns:svg="http://www.w3.org/2000/svg">
  <defs
     id="defs86" />
  <sodipodi:namedview
     id="namedview86"
     pagecolor="#ffffff"
     bordercolor="#000000"
     borderopacity="0.25"
     inkscape:showpageshadow="2"
     inkscape:pageopacity="0.0"
     inkscape:pagecheckerboard="0"
     inkscape:deskcolor="#d1d1d1"
     inkscape:document-units="pt"
     inkscape:zoom="0.177"
     inkscape:cx="466.10169"
     inkscape:cy="666.66667"
     inkscape:window-width="1712"
     inkscape:window-height="1041"
     inkscape:window-x="0"
     inkscape:window-y="43"
     inkscape:window-maximized="1"
     inkscape:current-layer="svg86" />
  <g
     transform="translate(0.000000,1000.000000) scale(0.100000,-0.100000)"
     fill="#000000"
     stroke="none"
     id="g86"
     style="fill:#f9f9f9">
    <path
       d="M6185 9661 c-116 -35 -173 -61 -265 -120 -41 -27 -135 -84 -209 -127 -74 -43 -159 -102 -188 -130 l-54 -51 -14 27 c-24 46 -93 128 -114 135 -14 4 -33 -7 -71 -42 -93 -86 -160 -215 -160 -311 0 -39 -5 -48 -41 -81 -38 -33 -41 -41 -43 -87 -1 -49 -2 -51 -74 -113 -77 -66 -257 -262 -342 -372 -226 -290 -300 -402 -363 -548 -19 -42 -56 -112 -84 -156 -27 -44 -60 -102 -72 -130 -20 -43 -24 -47 -31 -30 -5 11 -9 52 -9 91 -1 80 -24 157 -72 240 -36 63 -62 84 -118 91 -36 5 -40 8 -50 47 -11 44 -39 63 -134 87 -39 9 -50 8 -83 -9 -22 -11 -50 -32 -64 -47 -31 -34 -64 -50 -115 -59 -97 -17 -157 -93 -181 -228 -8 -45 -21 -92 -29 -104 -8 -13 -51 -50 -95 -84 -84 -64 -110 -99 -110 -150 0 -16 -4 -30 -10 -30 -5 0 -10 7 -10 15 0 25 -46 109 -143 265 -117 188 -154 237 -252 340 -75 79 -130 145 -297 360 -37 47 -113 132 -170 190 -85 87 -119 114 -193 154 -95 50 -177 108 -288 203 -65 55 -138 109 -320 239 -42 30 -136 103 -209 161 -193 155 -317 228 -468 273 -41 13 -134 42 -206 66 -128 43 -198 53 -233 34 -24 -12 -45 -64 -37 -93 5 -22 17 -37 100 -126 17 -18 66 -59 110 -89 93 -66 363 -309 538 -487 11 -11 63 -85 116 -165 52 -80 116 -168 141 -197 l45 -51 1 -79 c1 -70 5 -87 38 -155 36 -73 90 -136 162 -189 71 -53 105 -93 105 -124 1 -74 62 -134 222 -215 42 -22 79 -43 82 -48 3 -5 -12 -16 -33 -25 -58 -26 -83 -59 -89 -116 -4 -46 -3 -50 24 -64 16 -8 41 -17 56 -21 19 -4 28 -13 28 -26 0 -10 15 -30 32 -43 142 -102 139 -100 132 -132 -3 -16 -17 -57 -31 -90 -32 -78 -42 -175 -20 -209 9 -13 41 -34 71 -47 52 -21 56 -25 56 -56 0 -76 48 -108 149 -100 36 3 77 9 90 13 22 6 22 5 11 -16 -6 -12 -10 -34 -7 -48 3 -14 -1 -43 -9 -65 -23 -65 -18 -105 16 -137 35 -33 125 -80 152 -80 16 0 17 -3 7 -22 -19 -35 -13 -124 11 -164 25 -44 29 -37 -102 -185 -51 -59 -100 -120 -109 -136 -11 -20 -27 -32 -48 -36 -91 -18 -123 -160 -43 -188 18 -6 45 -35 77 -84 41 -62 56 -77 86 -85 54 -15 67 -35 41 -63 -11 -12 -42 -60 -69 -107 -50 -86 -124 -199 -255 -393 -41 -60 -95 -125 -123 -148 -49 -40 -51 -41 -105 -34 -30 4 -104 8 -165 9 -106 1 -110 0 -109 -20 0 -19 -7 -22 -54 -27 -69 -7 -85 -21 -77 -65 3 -18 8 -39 11 -46 3 -8 -4 -16 -15 -19 -29 -7 -28 -51 1 -71 47 -33 113 -16 196 51 43 35 44 35 95 23 29 -6 85 -16 125 -22 49 -8 72 -16 72 -25 0 -18 -85 -103 -103 -103 -25 0 -50 -37 -43 -65 9 -35 30 -41 62 -16 15 12 38 21 53 21 14 0 54 13 89 30 56 26 65 35 83 77 64 151 81 175 191 282 60 58 150 156 199 216 49 61 126 142 172 181 46 40 91 88 100 107 17 36 53 52 79 36 40 -26 95 5 113 62 10 29 22 23 51 -26 14 -25 33 -46 42 -46 34 -3 68 -5 105 -7 30 -2 37 -6 37 -22 0 -12 -7 -20 -17 -20 -30 0 -152 -81 -249 -166 -55 -48 -128 -101 -172 -124 -57 -29 -109 -70 -200 -156 -106 -100 -129 -128 -162 -194 -39 -79 -197 -284 -319 -416 -45 -49 -85 -108 -126 -185 -95 -178 -165 -279 -197 -286 -29 -6 -43 -29 -32 -56 9 -23 133 -117 155 -117 15 0 19 -7 19 -37 -1 -64 -16 -109 -54 -158 -66 -87 -47 -105 115 -111 122 -5 140 0 219 65 25 20 59 47 77 59 36 26 69 74 78 117 6 27 4 25 -23 -15 -29 -46 -108 -119 -191 -178 -34 -25 -54 -32 -90 -32 -35 0 -42 3 -31 11 11 8 0 9 -40 3 -132 -18 -147 -5 -92 76 46 69 62 143 45 216 l-10 42 72 -5 c82 -6 175 11 175 33 0 7 12 20 28 28 52 27 80 65 107 149 20 62 47 114 114 212 87 130 187 302 179 310 -2 3 -24 -26 -47 -63 -56 -88 -165 -254 -206 -315 -18 -27 -46 -88 -61 -135 -30 -95 -42 -109 -135 -165 -49 -29 -74 -37 -111 -37 -54 0 -191 34 -226 56 l-22 15 32 33 c36 36 106 147 188 298 32 60 81 128 124 176 88 97 195 232 218 274 10 17 21 34 25 37 19 14 81 108 87 133 10 45 231 245 331 299 46 26 120 79 164 119 130 119 271 202 271 161 0 -34 366 -73 490 -53 50 9 44 10 -70 12 -87 2 -111 5 -80 10 31 4 0 7 -100 11 -119 3 -152 8 -185 24 -58 29 -58 57 -1 74 39 11 52 11 96 -4 53 -18 99 -17 215 5 33 6 83 14 110 17 28 3 55 9 62 15 6 5 26 6 45 3 18 -3 78 -2 132 3 86 8 101 13 116 33 l18 23 60 -18 c46 -14 64 -16 81 -7 27 15 27 1 -1 -34 -56 -71 -213 -137 -413 -174 l-110 -21 96 5 c158 7 338 73 425 156 l31 30 11 -26 c7 -14 30 -50 53 -80 33 -44 42 -66 50 -121 9 -65 67 -226 89 -248 6 -6 64 -13 128 -16 137 -6 156 -15 242 -118 67 -80 78 -124 51 -196 -11 -29 -24 -78 -30 -110 -17 -90 -38 -125 -133 -218 -104 -102 -119 -138 -75 -182 l26 -26 -49 0 c-39 0 -52 4 -64 22 -21 30 -20 66 4 122 23 50 18 73 -24 108 -20 17 -20 17 29 12 46 -5 55 -2 110 33 33 22 73 58 88 82 l28 42 -35 40 c-20 21 -36 41 -36 43 0 2 16 23 35 46 29 34 35 50 35 87 0 54 -15 49 -23 -7 -3 -25 -17 -53 -36 -76 -36 -40 -35 -62 5 -105 13 -14 24 -29 24 -34 0 -19 -52 -74 -100 -105 -49 -32 -54 -33 -107 -24 -52 8 -59 12 -87 56 -52 79 -54 75 -76 -142 -6 -58 -20 -144 -31 -192 -10 -48 -19 -116 -19 -150 0 -100 -36 -377 -58 -453 -11 -38 -31 -105 -43 -148 -12 -42 -24 -76 -26 -74 -2 2 3 37 12 76 8 40 19 148 25 239 5 92 14 235 21 317 13 168 6 377 -15 475 -11 54 -14 59 -15 29 0 -20 4 -95 10 -167 9 -104 8 -178 -5 -364 -8 -128 -18 -282 -22 -343 -3 -60 -12 -146 -20 -190 -17 -98 -17 -98 -2 -89 8 5 9 0 5 -17 -7 -23 -17 -77 -51 -264 -15 -86 -32 -135 -94 -285 -22 -52 -49 -138 -60 -191 -12 -53 -39 -146 -62 -205 -23 -60 -57 -151 -76 -203 -19 -51 -52 -131 -74 -177 -22 -45 -40 -87 -40 -93 0 -6 -16 -26 -35 -45 -19 -20 -35 -42 -35 -51 0 -30 -19 -14 -64 57 -73 114 -119 247 -165 478 -38 189 -88 397 -90 376 -2 -16 39 -249 75 -425 47 -234 83 -327 187 -480 54 -80 77 -148 55 -162 -7 -5 -23 -9 -35 -9 -21 0 -23 5 -23 50 0 113 -90 203 -134 135 -9 -14 -21 -25 -26 -25 -6 0 -3 11 5 24 24 36 0 42 -26 6 -13 -16 -49 -46 -82 -65 -53 -32 -64 -35 -90 -26 -35 13 -47 7 -47 -20 0 -41 -28 -74 -91 -107 -75 -37 -91 -39 -142 -12 -52 28 -75 26 -95 -10 -18 -33 -48 -46 -82 -35 -27 8 -40 43 -40 103 -1 63 -31 127 -70 147 -25 13 -48 15 -125 9 l-93 -7 -16 -57 c-17 -60 -40 -80 -91 -80 l-24 0 29 62 c36 76 39 118 10 118 -15 0 -20 7 -20 25 0 14 -7 37 -16 51 -16 23 -15 30 6 108 14 52 21 100 18 127 -3 31 1 56 15 84 39 77 135 325 158 406 14 49 -8 96 -45 97 -31 0 -70 24 -91 56 -9 13 -19 57 -22 98 -4 49 -15 93 -33 133 -15 33 -31 76 -35 95 -10 50 -75 170 -91 170 -9 0 -14 -11 -14 -30 0 -16 -2 -30 -5 -30 -12 0 -111 80 -122 98 -9 16 -7 23 18 46 16 15 29 32 29 38 0 6 -10 0 -23 -13 -13 -13 -32 -29 -42 -35 -19 -11 -19 -12 4 -46 29 -41 116 -108 142 -108 13 0 19 7 19 23 1 32 43 -51 65 -128 10 -33 26 -77 37 -98 10 -21 23 -74 28 -117 5 -44 16 -92 24 -107 15 -31 82 -73 114 -73 29 0 36 -33 17 -74 -9 -19 -22 -58 -30 -88 -13 -54 -62 -174 -116 -285 -25 -52 -29 -69 -24 -110 5 -35 1 -66 -14 -113 -25 -77 -27 -123 -6 -140 8 -7 15 -26 15 -42 0 -21 6 -31 18 -35 16 -4 9 -14 -37 -61 -116 -118 -261 -471 -261 -636 0 -28 -7 -85 -16 -125 -18 -90 -14 -119 38 -270 67 -196 123 -284 212 -336 57 -33 361 -123 474 -140 172 -26 376 -38 450 -26 37 7 175 13 307 15 205 3 252 7 319 25 208 56 386 191 444 338 46 118 51 141 53 255 2 109 0 119 -45 268 -54 177 -91 252 -177 365 -83 108 -160 270 -170 355 -7 63 -9 66 -63 115 -31 28 -56 55 -56 61 0 5 36 106 81 224 44 118 91 263 104 321 13 59 46 160 73 225 27 66 55 146 62 179 29 150 55 259 85 365 77 272 94 348 109 505 9 88 16 184 16 214 0 29 7 79 15 111 8 32 21 118 29 190 7 72 16 133 19 136 2 3 14 -10 25 -28 11 -18 37 -49 56 -67 42 -41 43 -52 15 -116 -19 -42 -20 -53 -9 -87 9 -31 19 -43 48 -55 32 -13 45 -13 101 -2 68 15 95 39 44 39 -18 0 -38 9 -52 23 -30 33 -18 61 58 126 79 69 136 155 151 229 7 31 20 82 31 113 35 103 24 147 -65 252 -82 96 -127 117 -254 117 -68 0 -103 4 -109 13 -21 28 -63 140 -74 199 -6 35 -13 73 -15 85 -2 11 -23 45 -47 75 -85 104 -86 118 -7 118 75 0 79 5 115 169 25 114 27 134 21 252 -6 112 -5 129 8 129 8 0 31 25 51 55 21 33 42 55 53 55 9 0 33 13 52 28 19 15 83 49 142 76 103 45 111 47 192 45 46 -1 88 1 94 5 6 3 17 28 26 54 13 42 14 66 1 217 -7 94 -16 179 -19 190 -6 22 39 61 194 172 230 164 336 307 374 503 15 78 34 466 37 760 1 161 -51 329 -129 413 l-26 27 26 0 c34 0 61 31 53 62 -4 16 -1 29 9 37 9 8 16 20 16 27 0 8 23 36 50 62 44 43 49 52 44 79 -4 19 -1 35 8 44 7 8 20 28 28 44 9 16 74 78 145 138 72 60 181 155 243 213 65 59 143 120 180 141 119 65 166 111 174 173 2 14 11 36 21 50 25 35 22 85 -5 104 -34 24 -120 19 -223 -13z m196 -1 c30 -17 24 -63 -13 -106 -21 -24 -69 -54 -142 -89 -156 -75 -296 -172 -481 -334 -87 -77 -163 -138 -167 -135 -4 3 -12 32 -19 65 -6 33 -25 80 -41 104 l-30 45 21 28 c25 35 130 109 276 193 61 34 136 80 168 100 70 46 177 91 277 118 86 23 123 25 151 11z m-5981 -42 c47 -16 126 -40 175 -54 153 -41 327 -135 493 -269 130 -104 202 -157 402 -297 36 -25 94 -73 130 -105 36 -33 85 -72 110 -88 25 -15 65 -45 90 -65 25 -20 83 -57 129 -81 46 -24 102 -62 125 -84 70 -69 199 -215 249 -284 69 -94 148 -189 257 -310 124 -138 141 -160 245 -326 96 -153 155 -268 155 -300 0 -12 -11 -32 -25 -45 -37 -35 -48 -85 -28 -127 8 -18 19 -36 23 -38 5 -3 6 -32 3 -64 -6 -66 -1 -73 72 -87 21 -4 48 -15 59 -25 11 -11 23 -19 26 -19 4 0 5 -21 4 -46 -3 -43 -2 -46 19 -40 21 5 23 2 19 -30 -3 -26 -11 -38 -33 -50 -16 -8 -29 -18 -29 -22 0 -5 -17 -14 -37 -21 -21 -8 -66 -43 -101 -78 -36 -36 -83 -73 -106 -83 -57 -25 -91 -65 -129 -151 -22 -50 -50 -92 -86 -129 -29 -30 -60 -65 -68 -77 -22 -33 -42 -28 -60 14 -22 53 -12 112 23 140 l28 22 -30 6 c-69 14 -111 28 -136 46 -14 11 -31 19 -37 19 -15 0 -31 34 -31 67 0 16 10 57 21 92 15 44 18 65 10 70 -7 5 -2 19 15 45 14 21 23 40 21 43 -3 3 -34 -5 -69 -18 -35 -12 -88 -23 -121 -23 -52 -1 -61 2 -83 27 -13 15 -24 38 -24 51 0 22 6 23 110 35 123 13 160 24 160 45 0 13 -4 13 -32 1 -18 -7 -78 -16 -133 -20 -89 -6 -107 -4 -157 15 -62 23 -88 50 -88 89 0 13 16 71 36 128 22 64 35 117 32 137 l-4 32 59 -30 c51 -26 69 -30 132 -29 40 0 81 6 91 11 14 8 -4 10 -72 9 -85 -2 -95 0 -152 31 -34 17 -69 32 -78 32 -14 0 -134 76 -134 85 0 3 15 2 33 0 l32 -5 -32 15 c-18 8 -33 19 -33 25 0 5 -25 17 -55 26 -52 17 -55 20 -55 49 0 44 30 78 90 104 77 33 71 46 -50 107 -121 60 -185 108 -208 155 -15 30 -18 47 -12 60 8 14 1 26 -38 62 -26 25 -69 63 -97 85 -77 61 -101 90 -141 175 -34 73 -50 154 -33 171 9 10 137 -62 204 -114 33 -26 81 -61 107 -78 26 -18 93 -71 150 -117 57 -47 107 -85 113 -85 16 0 -116 128 -179 173 -32 23 -100 72 -150 108 -50 36 -123 82 -161 103 -48 25 -87 55 -121 94 -47 53 -167 222 -194 273 l-13 23 25 -20 c14 -10 83 -65 154 -120 71 -56 179 -136 239 -179 136 -96 196 -145 305 -250 123 -118 180 -165 202 -165 13 0 -3 19 -51 63 -38 34 -119 107 -180 163 -61 55 -163 138 -228 184 -258 183 -491 373 -699 571 -205 195 -300 279 -379 334 -38 28 -98 79 -133 115 -55 57 -62 69 -60 100 6 66 57 71 208 18z m5941 -150 c-13 -22 -54 -53 -117 -89 -68 -39 -130 -87 -203 -156 -58 -54 -165 -149 -237 -211 -72 -61 -138 -122 -147 -134 l-15 -23 -7 30 c-3 17 -10 40 -15 51 -7 18 0 30 43 71 142 135 289 255 398 326 79 52 293 165 312 166 5 1 0 -14 -12 -31z m-1025 -212 c-8 -112 1 -153 42 -189 16 -14 24 -45 38 -138 12 -79 21 -113 27 -103 5 9 3 58 -7 120 -13 90 -19 110 -45 139 -35 41 -46 82 -35 143 4 26 6 67 5 92 l-3 45 22 -20 c25 -23 145 -201 158 -236 23 -59 42 -138 36 -153 -4 -10 -1 -16 9 -16 22 0 39 -81 31 -150 -10 -89 -57 -125 -126 -96 -9 4 -30 0 -47 -8 -37 -20 -93 -20 -134 -2 -18 7 -52 19 -76 27 -86 26 -161 106 -161 172 0 31 36 77 61 77 16 0 19 7 19 54 0 51 34 186 47 186 3 0 3 -24 0 -54 -7 -71 8 -135 40 -168 32 -33 55 -38 27 -5 -33 36 -44 74 -44 145 1 115 13 151 63 199 25 24 49 43 53 43 4 0 4 -47 0 -104z m-247 -476 c12 -17 40 -42 61 -56 32 -21 38 -30 29 -40 -7 -8 -9 -27 -5 -45 5 -27 -1 -37 -57 -97 -35 -37 -81 -92 -104 -122 -47 -63 -118 -189 -110 -196 2 -3 31 37 63 88 54 85 197 268 210 268 3 0 21 -16 40 -36 l34 -37 -30 -30 c-34 -35 -39 -74 -15 -111 14 -21 14 -24 0 -36 -8 -7 -15 -19 -15 -27 0 -9 -24 -41 -53 -73 -80 -86 -127 -145 -127 -160 0 -8 17 6 37 31 21 24 65 73 98 107 l60 64 6 -38 c6 -34 2 -43 -29 -81 -47 -55 -95 -93 -155 -122 -27 -13 -51 -30 -54 -38 -5 -12 -9 -11 -29 2 -20 13 -24 13 -24 1 0 -7 11 -21 25 -30 14 -9 25 -23 25 -30 0 -13 -86 -49 -147 -61 -40 -8 -103 -53 -134 -96 -21 -30 -18 -29 34 14 31 25 76 51 99 58 24 6 61 17 83 25 23 8 46 14 53 14 16 0 15 -78 -1 -106 -17 -31 -123 -108 -187 -137 -47 -21 -210 -140 -210 -153 0 -10 68 31 126 76 102 78 140 83 202 27 35 -32 26 -103 -14 -113 -13 -3 -24 -10 -24 -15 0 -5 -22 -9 -50 -9 -27 0 -50 -4 -50 -9 0 -12 84 -25 106 -17 11 4 14 1 12 -12 -2 -12 -16 -19 -48 -23 -49 -6 -118 -39 -145 -69 -22 -25 -75 -40 -137 -40 -29 0 -48 -5 -48 -11 0 -8 24 -10 74 -7 61 3 80 8 114 32 49 34 72 29 72 -14 0 -43 -44 -86 -98 -95 -38 -6 -42 -10 -42 -35 0 -33 -35 -80 -58 -80 -9 0 -26 7 -36 15 -22 17 -86 20 -86 5 0 -5 13 -10 30 -10 43 0 100 -53 100 -94 0 -50 -21 -79 -65 -92 -85 -26 -214 -10 -250 31 -24 27 -57 45 -84 45 -11 0 -29 14 -42 33 -12 17 -35 46 -52 63 -24 27 -27 35 -18 52 6 11 25 23 43 27 76 16 102 85 53 144 -14 16 -35 33 -45 36 -28 9 -29 85 -1 85 10 0 24 7 31 15 11 13 9 19 -8 38 l-21 23 23 49 c12 28 47 88 76 135 29 47 70 122 91 167 71 155 175 311 309 462 114 129 135 155 120 146 -8 -5 0 11 19 35 40 52 307 320 319 320 5 0 18 -14 31 -30z m208 -120 c70 -24 92 -25 137 -3 29 13 40 14 61 5 34 -16 32 -38 -7 -58 -27 -14 -29 -18 -15 -26 9 -5 17 -17 17 -28 0 -23 -27 -29 -137 -28 -79 1 -83 2 -114 34 -45 46 -28 63 26 27 25 -17 56 -28 89 -30 38 -3 47 -2 36 6 -8 6 -26 11 -41 11 -14 0 -46 14 -72 30 -26 17 -54 30 -62 30 -18 0 -28 17 -21 35 7 20 36 19 103 -5z m113 -175 c49 -25 105 -125 131 -233 27 -108 29 -197 15 -602 -10 -288 -27 -405 -72 -495 -58 -118 -160 -224 -330 -345 -49 -35 -115 -85 -147 -112 -55 -45 -115 -83 -122 -76 -15 17 -55 209 -55 266 0 103 8 117 77 137 64 18 146 66 168 98 19 27 19 11 0 -43 -17 -47 -19 -70 -7 -70 4 0 18 30 31 68 13 37 37 96 54 132 32 70 67 189 94 315 9 44 17 81 18 82 0 1 17 -2 37 -7 25 -7 46 -7 74 2 37 13 38 14 37 64 0 51 -27 109 -45 98 -5 -3 -3 -16 6 -30 18 -27 21 -60 6 -69 -8 -5 -8 -11 0 -20 15 -18 -2 -28 -51 -28 -38 0 -73 18 -64 33 3 4 -2 13 -10 20 -8 7 -15 23 -15 36 0 13 -5 24 -11 24 -12 0 -3 -78 12 -96 5 -6 4 -23 -1 -40 -6 -16 -24 -87 -41 -159 -30 -128 -73 -245 -90 -245 -5 0 -26 -18 -46 -41 -42 -47 -127 -99 -161 -99 -13 0 -32 -5 -43 -11 -11 -5 -50 -11 -87 -13 -65 -3 -113 -19 -172 -59 l-25 -16 3 40 c3 22 0 45 -6 51 -7 7 0 20 24 43 21 20 34 42 34 57 0 22 7 27 44 37 58 14 96 58 96 111 0 21 -4 42 -10 45 -27 17 19 45 73 45 38 0 57 15 57 45 0 11 7 28 15 39 8 10 17 38 21 62 7 51 -9 84 -57 113 l-30 18 60 44 c91 67 99 87 89 239 l-3 45 60 32 c33 17 82 54 110 80 l51 50 17 -23 c13 -18 17 -43 17 -112 l0 -90 -34 -6 c-26 -5 -36 -13 -40 -32 -10 -38 0 -59 39 -80 27 -14 34 -23 29 -39 -4 -18 -4 -18 8 -4 16 19 92 31 124 19 33 -13 82 7 99 39 12 24 12 34 -1 72 -9 24 -22 51 -30 60 -8 8 -14 28 -14 43 0 25 3 27 30 22 100 -19 96 -19 79 -1 -10 10 -38 19 -65 22 -27 2 -62 9 -79 15 -78 28 -189 118 -146 118 48 0 170 -25 184 -37 20 -19 31 -12 23 14 -5 15 -24 21 -98 31 -96 13 -120 24 -101 43 13 13 118 7 182 -10 52 -14 68 -6 23 11 -33 13 -46 32 -14 21 9 -3 2 6 -17 21 -29 22 -45 26 -100 26 -36 0 -73 5 -81 10 -13 9 -12 13 9 30 26 22 37 24 131 21 50 -1 61 1 48 9 -10 6 -18 16 -18 22 0 5 8 7 18 4 14 -5 13 -3 -3 9 -36 28 -110 45 -150 34 -58 -16 -71 -9 -45 23 35 45 125 61 180 33z m-69 -75 c20 -6 43 -17 49 -26 11 -13 8 -14 -27 -8 -21 3 -57 1 -78 -5 -37 -10 -54 -4 -55 20 0 5 46 23 70 28 3 0 21 -4 41 -9z m44 -151 c5 -5 -21 -9 -68 -9 -55 0 -77 4 -77 13 0 14 129 11 145 -4z m-55 -207 c46 -23 55 -32 61 -62 11 -52 -18 -80 -83 -80 l-48 0 0 85 c0 47 3 85 8 84 4 0 32 -12 62 -27z m-1622 4 c81 -22 99 -37 113 -101 11 -49 10 -57 -6 -75 -10 -11 -15 -23 -11 -28 11 -10 46 36 46 60 0 18 5 20 36 15 51 -8 75 -35 120 -130 34 -73 39 -93 44 -183 6 -103 11 -119 55 -157 20 -18 20 -18 -12 -12 -33 7 -33 6 -33 -32 0 -21 -3 -48 -6 -60 -5 -18 -1 -23 20 -29 32 -8 76 -58 76 -86 0 -35 -29 -58 -71 -58 -33 0 -40 -4 -45 -25 -3 -13 -12 -29 -20 -36 -10 -8 -9 -1 3 27 15 33 18 70 18 254 0 193 -2 222 -22 285 -12 39 -25 86 -28 106 -7 46 -63 102 -96 97 l-24 -4 26 -11 c35 -15 69 -60 69 -92 1 -14 8 -44 16 -66 29 -74 39 -159 39 -330 -1 -188 -8 -227 -58 -302 -23 -35 -47 -56 -90 -77 -58 -29 -72 -45 -23 -27 l26 11 0 -74 c0 -41 5 -98 12 -127 12 -51 11 -52 -15 -73 -15 -12 -27 -26 -27 -32 0 -20 -63 -84 -124 -127 -57 -40 -66 -44 -83 -32 -11 7 -37 17 -59 21 -56 10 -161 97 -211 175 -53 82 -62 114 -35 128 11 6 27 30 36 53 17 48 28 225 15 234 -14 8 -10 24 5 24 8 0 18 5 21 10 4 6 -8 10 -29 10 -39 0 -48 -18 -21 -40 16 -13 21 -60 7 -60 -4 0 -14 6 -21 13 -9 8 -8 1 3 -20 9 -18 16 -49 16 -69 l0 -38 -28 27 c-44 42 -61 32 -19 -11 61 -63 42 -111 -53 -138 -30 -8 -64 -18 -74 -21 -17 -5 -18 -2 -12 30 5 29 4 37 -7 37 -9 0 -17 15 -21 40 -4 27 -13 43 -29 51 -12 7 -26 18 -30 25 -4 8 -21 14 -37 14 -16 0 -40 4 -54 10 -24 9 -25 13 -19 56 5 38 2 55 -17 89 -30 55 -23 80 42 146 54 56 65 78 45 91 -22 14 21 71 97 128 95 70 112 97 130 199 22 125 73 189 164 206 49 9 102 37 132 70 14 15 39 34 55 41 17 7 30 13 30 13 0 1 24 -6 53 -13z m1734 -159 c4 -20 0 -22 -41 -23 -61 -2 -111 -14 -111 -26 0 -6 15 -8 38 -4 126 22 149 18 112 -21 -17 -19 -28 -21 -97 -18 -133 7 -163 17 -163 57 0 26 34 36 110 30 60 -4 69 -2 96 21 32 27 49 23 56 -16z m-1390 -834 c14 -16 33 -40 43 -55 16 -26 16 -28 0 -34 -19 -8 -171 2 -186 12 -19 11 77 99 112 103 3 1 17 -11 31 -26z m757 -96 c-15 -52 -10 -120 15 -215 15 -61 20 -94 13 -101 -7 -7 -7 -14 0 -23 6 -7 21 -53 33 -103 25 -105 45 -152 71 -166 24 -12 24 -8 -1 33 -18 31 -50 144 -50 180 0 9 16 25 35 37 l34 20 11 -40 c6 -22 8 -44 5 -49 -4 -6 -1 -71 5 -144 9 -103 9 -143 0 -170 -13 -39 -11 -39 -120 -41 -63 -1 -89 -7 -165 -40 -49 -21 -112 -55 -140 -76 -27 -20 -59 -39 -70 -40 -11 -2 -36 -28 -55 -57 -22 -33 -41 -52 -54 -52 -18 0 -19 -6 -13 -132 5 -120 3 -145 -20 -248 -38 -173 -36 -169 -92 -167 -27 1 -56 8 -65 16 -14 12 -21 12 -41 1 -14 -8 -35 -10 -52 -5 -76 19 -106 18 -122 -3 -14 -19 -30 -22 -141 -27 -69 -4 -138 -11 -154 -16 -19 -6 -33 -5 -42 2 -9 7 -20 6 -38 -6 -13 -9 -46 -18 -73 -19 -26 -2 -62 -9 -80 -17 -28 -11 -43 -11 -108 6 -60 15 -85 17 -115 8 -23 -6 -45 -6 -54 -1 -10 5 -24 5 -36 -2 -14 -7 -26 -8 -39 0 -11 5 -33 7 -49 4 -27 -6 -33 -2 -57 37 -30 47 -63 85 -68 78 -2 -2 -11 -25 -21 -52 -20 -52 -49 -68 -91 -49 -15 7 -26 8 -30 2 -7 -11 -87 -12 -124 -1 -31 8 -85 75 -78 95 5 14 9 14 34 1 34 -18 53 -19 53 -2 0 6 -18 18 -40 25 -42 13 -70 5 -96 -27 -17 -22 -58 -6 -85 34 -23 33 -51 50 -93 57 -18 3 -53 50 -93 126 -11 21 -28 35 -47 40 -28 7 -31 12 -34 55 -4 54 14 75 76 93 28 8 43 21 59 51 24 43 312 378 368 428 19 18 43 56 58 93 37 93 65 129 123 157 28 13 73 47 100 75 26 28 74 67 106 87 32 20 58 40 58 44 0 6 40 20 65 23 23 3 55 18 55 27 0 24 41 7 56 -23 37 -76 100 -158 140 -183 23 -15 52 -37 64 -50 13 -14 40 -27 64 -30 22 -4 62 -23 89 -42 52 -38 67 -38 48 3 -14 32 -13 34 51 73 31 19 69 54 91 84 20 29 47 64 58 78 15 19 22 46 26 95 3 50 2 65 -6 54 -6 -8 -11 -25 -11 -37 0 -13 -4 -23 -10 -23 -6 0 -10 35 -10 86 0 79 1 85 17 73 12 -10 52 -14 149 -14 99 -1 137 -4 146 -14 11 -12 10 -13 -5 -7 -28 9 -16 -17 14 -31 14 -7 61 -20 105 -28 72 -15 86 -15 153 -1 54 11 84 24 115 49 57 48 102 69 161 76 69 10 75 6 64 -32z m-2359 -1558 c20 -16 38 -20 62 -16 29 4 37 0 73 -40 34 -38 47 -46 88 -50 26 -3 47 -9 47 -13 0 -15 -42 -59 -125 -130 -47 -41 -111 -108 -142 -150 -31 -41 -110 -129 -177 -195 -149 -147 -165 -168 -211 -274 -44 -104 -73 -129 -173 -146 -23 -4 -52 -15 -66 -26 -18 -14 -25 -16 -29 -7 -7 22 4 38 40 55 19 9 53 40 74 69 36 47 39 56 33 90 -4 21 -14 45 -22 53 -13 13 -14 11 -10 -22 l4 -37 -56 6 c-30 3 -68 10 -84 15 -16 5 -41 9 -55 9 -25 0 -25 1 8 21 25 15 44 19 70 15 34 -6 35 -5 17 9 -13 10 -41 15 -81 15 -76 0 -119 14 -139 45 -9 14 -16 27 -16 30 0 10 187 5 219 -6 37 -13 159 2 224 28 53 21 41 25 -23 8 -30 -8 -57 -15 -59 -15 -3 0 12 12 32 28 50 36 256 339 396 580 23 39 44 72 47 72 3 0 18 -10 34 -21z m-840 -744 c16 -8 46 -19 67 -23 l38 -9 -59 -12 c-33 -7 -89 -14 -125 -15 l-65 -1 -7 32 c-3 18 -4 35 -1 38 12 11 125 4 152 -10z m10 -85 c0 -18 -92 -70 -123 -70 -59 0 -90 40 -44 55 59 21 167 30 167 15z m178 -960 c34 -11 42 -18 42 -37 0 -12 -4 -23 -8 -23 -12 0 -126 90 -131 103 -2 5 9 1 25 -10 16 -11 48 -26 72 -33z m2006 -1849 c44 -45 49 -54 56 -113 10 -85 78 -227 169 -348 97 -130 122 -181 176 -360 l47 -155 -4 -125 c-4 -113 -8 -133 -39 -210 -29 -75 -43 -95 -114 -165 -62 -63 -99 -90 -165 -123 -147 -72 -208 -83 -495 -87 -139 -2 -272 -9 -300 -15 -54 -12 -226 -2 -420 25 -117 17 -421 105 -481 140 -84 49 -147 152 -211 344 -38 114 -45 191 -24 266 6 22 11 65 11 96 0 31 13 110 30 175 35 142 149 378 217 453 58 64 55 33 -8 -70 -58 -95 -72 -132 -57 -147 13 -13 38 8 38 31 0 29 39 64 78 71 55 8 87 38 101 90 l11 44 85 7 c71 6 89 5 110 -9 31 -21 45 -54 45 -109 0 -98 32 -141 102 -139 24 0 40 9 59 31 30 37 33 37 91 11 36 -16 51 -17 80 -9 43 11 121 54 138 74 15 17 30 11 30 -13 0 -9 18 -45 40 -79 30 -47 54 -70 97 -96 l58 -33 7 -75 c24 -270 38 -330 88 -391 33 -40 92 -64 175 -74 38 -5 55 -3 66 8 10 10 26 13 48 10 l33 -5 -5 39 c-3 22 -12 86 -20 144 -18 127 -62 248 -145 392 -33 57 -62 115 -66 131 -6 25 -4 27 23 27 17 0 41 5 55 11 21 10 24 17 20 43 -20 121 -19 131 20 169 20 20 36 41 36 47 0 17 50 120 59 120 4 0 28 -22 55 -49z m-332 -148 c38 -43 47 -78 41 -154 -6 -82 -3 -93 79 -231 43 -72 100 -211 100 -243 1 -11 7 -39 14 -63 21 -65 17 -72 -13 -22 -44 73 -37 31 12 -73 25 -53 45 -101 45 -107 0 -24 -30 -7 -66 38 -60 75 -59 73 -38 66 10 -3 -6 18 -36 47 -30 28 -63 64 -72 78 l-18 26 0 -23 c0 -14 13 -36 30 -52 17 -16 37 -43 44 -62 8 -18 24 -42 36 -53 21 -19 50 -66 50 -81 0 -14 -130 4 -166 23 -57 29 -95 105 -105 206 -20 197 -30 270 -39 288 -6 10 -33 30 -60 44 -71 36 -150 158 -150 231 0 20 4 22 38 17 31 -4 47 1 87 26 30 19 62 31 82 31 27 0 37 6 51 30 19 34 33 37 54 13z"
       id="path1"
       style="fill:#f9f9f9" />
    <path
       d="M6180 9586 c-145 -54 -475 -274 -498 -333 -17 -44 -25 -100 -14 -107 5 -3 12 17 16 47 6 44 14 58 51 93 59 57 246 180 385 253 113 60 129 72 60 47z"
       id="path2"
       style="fill:#f9f9f9" />
    <path
       d="M490 9490 c14 -11 61 -34 105 -51 120 -47 537 -282 656 -370 68 -50 319 -301 319 -318 0 -6 64 -59 143 -119 163 -125 225 -186 298 -292 28 -41 72 -102 98 -135 25 -33 64 -86 86 -119 21 -32 45 -60 52 -63 9 -4 10 -10 3 -23 -15 -28 -12 -107 5 -139 18 -35 69 -79 101 -87 14 -4 24 -14 24 -23 0 -19 32 -52 68 -70 37 -20 100 -16 132 8 l29 20 67 -127 c79 -150 110 -244 89 -276 -20 -31 -38 -112 -31 -141 9 -34 59 -90 95 -105 21 -8 27 -17 24 -31 -10 -36 8 -90 44 -129 43 -48 97 -83 120 -78 15 3 12 8 -13 24 -92 58 -126 104 -123 168 2 25 1 47 -2 49 -2 2 -25 15 -50 30 -53 30 -74 70 -66 122 8 50 37 105 55 105 13 0 13 2 -2 18 -9 11 -23 44 -31 76 -8 31 -33 89 -56 128 -22 40 -56 106 -75 147 l-34 74 -28 -26 c-39 -37 -73 -48 -115 -36 -40 11 -62 33 -62 62 0 15 -11 24 -42 34 -23 8 -56 30 -73 49 -25 29 -30 43 -30 88 0 36 5 58 15 66 24 20 14 54 -17 60 -28 5 -28 6 -221 280 -94 133 -156 195 -298 297 -63 44 -128 96 -145 114 -116 126 -264 278 -294 303 -123 100 -565 353 -723 414 -122 47 -132 50 -97 22z"
       id="path3"
       style="fill:#f9f9f9" />
    <path
       d="M410 9451 c0 -7 105 -81 233 -165 127 -84 261 -175 297 -203 36 -27 101 -73 145 -103 153 -101 295 -223 735 -627 73 -67 79 -71 43 -28 -55 66 -174 181 -358 346 -164 147 -266 229 -420 336 -55 38 -150 105 -212 149 -93 65 -322 218 -435 289 -18 11 -28 13 -28 6z"
       id="path4"
       style="fill:#f9f9f9" />
    <path
       d="M1806 8490 c15 -28 176 -250 187 -257 13 -8 9 -1 -61 105 -48 73 -146 191 -126 152z"
       id="path5"
       style="fill:#f9f9f9" />
    <path
       d="M1656 7920 c5 -5 34 -18 64 -29 74 -27 277 -112 317 -134 17 -9 53 -41 79 -71 47 -55 87 -78 158 -91 l37 -7 -20 -22 c-25 -26 -28 -82 -6 -112 8 -12 28 -27 44 -34 25 -10 29 -15 21 -30 -14 -27 -12 -77 5 -109 18 -36 106 -81 157 -81 l38 0 -25 -56 c-39 -89 -28 -154 26 -154 10 0 19 -7 19 -15 0 -9 7 -18 15 -21 8 -4 15 -18 15 -33 1 -70 59 -138 134 -155 36 -9 109 2 133 19 15 11 7 12 -49 8 -118 -10 -188 44 -188 146 0 30 -4 41 -15 41 -8 0 -14 5 -12 11 1 6 -14 16 -33 22 -46 16 -50 50 -15 128 14 33 24 63 21 68 -3 5 -27 12 -53 16 -72 10 -129 39 -147 74 -22 41 -20 54 10 90 24 29 24 31 7 37 -85 26 -116 63 -94 110 6 14 25 31 41 37 44 17 32 30 -43 43 -79 15 -134 39 -148 67 -15 26 -4 76 23 104 17 18 18 23 6 23 -20 0 -45 -29 -53 -62 l-7 -28 -39 33 c-25 22 -101 59 -218 105 -167 67 -229 86 -205 62z"
       id="path6"
       style="fill:#f9f9f9" />
    <path
       d="M2020 7620 c20 -13 43 -13 35 0 -3 6 -16 10 -28 10 -18 0 -19 -2 -7 -10z"
       id="path7"
       style="fill:#f9f9f9" />
    <path
       d="M1882 7463 l3 -28 80 3 c139 6 165 20 38 21 -96 1 -112 3 -107 16 4 8 1 15 -6 15 -6 0 -10 -11 -8 -27z"
       id="path8"
       style="fill:#f9f9f9" />
    <path
       d="M2475 6786 c-22 -51 -19 -108 6 -140 25 -32 69 -56 103 -56 34 0 43 18 11 25 -14 3 -36 7 -50 10 -28 6 -65 58 -65 90 1 11 7 37 14 58 18 48 0 60 -19 13z"
       id="path9"
       style="fill:#f9f9f9" />
    <path
       d="M2766 6692 c-7 -12 35 -62 53 -62 24 0 19 20 -8 34 -16 9 -31 21 -33 28 -3 9 -6 9 -12 0z"
       id="path10"
       style="fill:#f9f9f9" />
    <path
       d="M2460 6538 c0 -31 18 -51 71 -78 40 -21 99 -27 99 -10 0 6 -9 10 -19 10 -34 0 -120 50 -136 78 l-14 27 -1 -27z"
       id="path11"
       style="fill:#f9f9f9" />
    <path
       d="M5262 8923 c-12 -17 -22 -38 -22 -46 0 -15 54 -67 70 -67 5 0 17 -3 27 -6 10 -4 -1 7 -24 24 -54 40 -58 48 -38 78 24 37 12 53 -13 17z"
       id="path12"
       style="fill:#f9f9f9" />
    <path
       d="M5453 8768 c-18 -6 -33 -15 -33 -19 0 -12 47 -11 55 1 10 16 23 12 30 -9 7 -24 43 -37 58 -22 8 8 5 11 -10 11 -11 0 -28 11 -37 25 -18 28 -17 27 -63 13z"
       id="path13"
       style="fill:#f9f9f9" />
    <path
       d="M4935 8629 c-32 -38 -67 -107 -63 -121 2 -5 16 12 31 38 14 27 36 64 48 82 27 41 19 41 -16 1z"
       id="path14"
       style="fill:#f9f9f9" />
    <path
       d="M5084 8378 c-47 -48 -65 -74 -73 -108 -7 -25 -28 -81 -47 -124 -19 -43 -28 -74 -21 -67 20 16 73 127 87 181 9 32 28 62 71 107 32 34 59 64 59 67 0 15 -18 2 -76 -56z"
       id="path15"
       style="fill:#f9f9f9" />
    <path
       d="M4614 8224 c-3 -10 -19 -50 -34 -89 -15 -38 -35 -95 -45 -125 -10 -30 -33 -92 -51 -138 -28 -68 -34 -95 -34 -158 0 -47 4 -73 10 -69 6 3 10 35 10 71 0 46 7 82 26 127 14 34 46 120 70 191 25 70 52 142 60 158 11 21 13 33 5 41 -7 7 -12 5 -17 -9z"
       id="path16"
       style="fill:#f9f9f9" />
    <path
       d="M4827 8133 c-43 -36 -85 -79 -93 -95 -13 -26 -13 -32 3 -60 14 -25 15 -32 5 -36 -34 -11 -87 -72 -130 -146 -25 -45 -82 -119 -125 -164 -77 -83 -118 -145 -103 -159 4 -4 12 0 18 10 16 30 38 1 38 -51 0 -67 -31 -121 -92 -163 -57 -38 -55 -31 -42 -132 6 -47 5 -49 -36 -88 -23 -22 -40 -43 -36 -46 8 -8 73 44 87 69 11 21 8 98 -5 130 -6 12 6 25 46 52 71 47 98 95 98 174 0 49 -4 65 -20 80 -21 19 -21 19 64 110 56 59 96 114 117 157 30 60 74 109 138 155 20 14 20 17 6 44 -8 15 -15 34 -15 41 0 7 37 49 82 94 45 44 80 82 77 85 -2 3 -40 -25 -82 -61z"
       id="path17"
       style="fill:#f9f9f9" />
    <path
       d="M4437 8026 c-51 -67 -191 -356 -172 -356 3 0 37 64 76 143 39 78 87 164 106 190 45 64 37 84 -10 23z"
       id="path18"
       style="fill:#f9f9f9" />
    <path
       d="M5270 7660 c0 -5 6 -10 13 -10 6 0 23 -3 37 -6 24 -5 24 -5 6 10 -22 18 -56 21 -56 6z"
       id="path19"
       style="fill:#f9f9f9" />
    <path
       d="M3610 7990 c0 -4 21 -15 47 -24 60 -20 83 -42 83 -78 0 -15 5 -28 10 -28 6 0 10 12 10 28 -1 45 -35 76 -105 97 -25 8 -45 10 -45 5z"
       id="path20"
       style="fill:#f9f9f9" />
    <path
       d="M3512 7817 c-39 -40 -42 -46 -51 -125 -8 -71 -13 -88 -37 -113 -29 -30 -27 -36 6 -19 30 16 42 48 50 126 6 62 12 78 41 113 34 41 65 51 87 29 17 -17 28 -2 12 17 -23 28 -63 18 -108 -28z"
       id="path21"
       style="fill:#f9f9f9" />
    <path
       d="M3663 7823 c9 -2 25 -2 35 0 9 3 1 5 -18 5 -19 0 -27 -2 -17 -5z"
       id="path22"
       style="fill:#f9f9f9" />
    <path
       d="M3294 7590 c-26 -22 -78 -55 -114 -75 -36 -19 -57 -35 -47 -35 36 0 174 86 203 129 22 30 13 26 -42 -19z"
       id="path23"
       style="fill:#f9f9f9" />
    <path
       d="M3409 7475 c-3 -5 -9 -22 -13 -38 -4 -18 -24 -39 -62 -64 -31 -21 -51 -39 -45 -41 15 -5 90 47 113 79 11 14 18 37 16 50 -1 13 -6 20 -9 14z"
       id="path24"
       style="fill:#f9f9f9" />
    <path
       d="M3200 7303 c-57 -9 -136 -36 -162 -55 -48 -34 -34 -98 39 -179 19 -21 42 -39 49 -39 21 0 17 8 -22 42 -38 34 -74 95 -74 127 0 26 28 43 115 71 39 12 74 26 80 31 5 5 7 8 5 8 -3 -1 -16 -4 -30 -6z"
       id="path25"
       style="fill:#f9f9f9" />
    <path
       d="M3343 7269 c10 -6 22 -20 27 -32 8 -21 9 -21 9 -1 1 24 -17 44 -38 44 -13 -1 -12 -3 2 -11z"
       id="path26"
       style="fill:#f9f9f9" />
    <path
       d="M3495 7044 c38 -22 120 -44 164 -44 47 0 34 9 -20 15 -38 4 -82 15 -154 39 -11 4 -7 0 10 -10z"
       id="path27"
       style="fill:#f9f9f9" />
    <path
       d="M4073 6885 l28 -25 -25 0 c-13 0 -26 -5 -28 -10 -2 -6 -24 1 -51 15 -26 14 -47 21 -47 15 0 -12 119 -74 121 -63 1 5 1 11 0 16 0 4 12 7 28 7 17 0 32 4 36 9 6 10 -37 43 -70 54 -15 6 -14 1 8 -18z"
       id="path28"
       style="fill:#f9f9f9" />
    <path
       d="M4656 6861 c-16 -11 -35 -30 -42 -43 -16 -27 -18 -77 -4 -98 8 -12 10 -12 16 3 3 9 4 24 0 32 -7 20 10 65 32 81 24 19 30 17 38 -8 7 -25 22 -38 43 -38 12 0 11 3 -1 18 -8 9 -18 29 -22 45 -8 32 -21 34 -60 8z"
       id="path29"
       style="fill:#f9f9f9" />
    <path
       d="M3934 6828 c-4 -6 5 -21 22 -35 16 -13 49 -40 74 -61 l44 -37 -19 33 c-11 18 -37 45 -59 60 -28 19 -35 28 -23 30 10 2 17 8 17 13 0 13 -47 11 -56 -3z"
       id="path30"
       style="fill:#f9f9f9" />
    <path
       d="M4475 6780 c-33 -34 -84 -72 -112 -87 -29 -14 -53 -27 -53 -29 0 -2 15 -24 32 -49 36 -51 51 -44 20 9 l-20 34 31 13 c17 7 62 42 99 77 l68 64 0 -33 c0 -19 5 -41 10 -49 7 -11 10 2 8 44 -2 33 -8 61 -13 63 -6 2 -37 -24 -70 -57z"
       id="path31"
       style="fill:#f9f9f9" />
    <path
       d="M4590 6607 c0 -52 19 -134 45 -193 27 -60 50 -82 33 -32 -6 18 -23 82 -39 142 -15 59 -30 111 -33 114 -3 3 -6 -11 -6 -31z"
       id="path32"
       style="fill:#f9f9f9" />
    <path
       d="M4080 6593 c0 -9 87 -158 132 -226 22 -32 44 -55 49 -51 6 3 2 18 -11 37 -11 18 -51 80 -88 140 -59 94 -82 123 -82 100z"
       id="path33"
       style="fill:#f9f9f9" />
    <path
       d="M4275 6486 c-1 -110 7 -140 19 -76 3 17 9 43 12 59 4 24 9 28 27 23 12 -3 32 -12 45 -20 16 -10 26 -12 33 -5 7 7 -2 17 -26 32 -20 11 -40 21 -45 21 -6 0 -21 18 -35 40 -14 22 -26 40 -28 40 -1 0 -2 -51 -2 -114z"
       id="path34"
       style="fill:#f9f9f9" />
    <path
       d="M3390 6432 c0 -4 12 -13 28 -19 15 -6 54 -23 86 -37 81 -37 54 -7 -30 33 -67 32 -84 37 -84 23z"
       id="path35"
       style="fill:#f9f9f9" />
    <path
       d="M4432 6315 c0 -38 4 -97 8 -130 6 -55 7 -52 7 40 1 55 -3 114 -7 130 -6 22 -8 12 -8 -40z"
       id="path36"
       style="fill:#f9f9f9" />
    <path
       d="M2849 6223 c-154 -158 -204 -246 -223 -393 -8 -62 6 -33 34 70 28 104 74 172 207 311 53 54 89 99 82 99 -7 0 -52 -39 -100 -87z"
       id="path37"
       style="fill:#f9f9f9" />
    <path
       d="M4237 6259 c-4 -13 -7 -43 -7 -67 0 -37 -2 -43 -18 -38 -17 6 -19 -1 -20 -85 -1 -51 -4 -94 -7 -97 -3 -3 -37 4 -76 17 -58 19 -73 20 -86 9 -13 -11 -23 -5 -67 45 -75 84 -88 70 -15 -15 69 -81 76 -86 85 -64 8 21 29 20 99 -4 77 -26 86 -18 93 83 4 63 8 76 23 80 16 4 19 15 18 64 0 32 -4 67 -8 77 -7 18 -8 18 -14 -5z"
       id="path38"
       style="fill:#f9f9f9" />
    <path
       d="M3395 6224 c-67 -21 -88 -33 -127 -74 -27 -27 -48 -56 -48 -65 0 -10 16 -23 40 -32 32 -13 45 -26 60 -59 13 -30 26 -45 44 -50 32 -8 59 1 31 11 -41 14 -50 23 -59 58 -8 30 -16 38 -53 52 -23 9 -43 20 -43 24 0 4 19 26 43 48 32 32 61 48 121 67 43 14 87 26 97 26 11 0 19 5 19 10 0 16 -39 11 -125 -16z"
       id="path39"
       style="fill:#f9f9f9" />
    <path
       d="M2570 6113 c-97 -103 -165 -189 -206 -263 l-25 -45 25 30 c14 17 57 71 96 120 39 50 103 125 142 168 38 43 68 80 65 83 -2 3 -46 -39 -97 -93z"
       id="path40"
       style="fill:#f9f9f9" />
    <path
       d="M3032 6107 c-70 -117 -85 -163 -93 -298 -4 -69 -15 -163 -24 -208 -9 -46 -14 -85 -12 -88 3 -3 15 26 27 64 15 46 24 111 29 203 8 134 8 136 60 253 29 65 51 120 49 123 -2 2 -18 -20 -36 -49z"
       id="path41"
       style="fill:#f9f9f9" />
    <path
       d="M3810 6121 c0 -5 15 -36 34 -68 19 -32 38 -70 41 -85 l7 -26 -59 24 c-60 24 -113 31 -113 14 0 -5 7 -7 15 -4 8 3 45 -8 81 -25 72 -34 94 -38 95 -18 0 6 20 -26 44 -73 48 -92 57 -96 24 -11 -27 73 -42 102 -102 199 -48 75 -67 97 -67 73z"
       id="path42"
       style="fill:#f9f9f9" />
    <path
       d="M4300 6114 c0 -18 41 -116 46 -111 5 4 -36 127 -42 127 -2 0 -4 -7 -4 -16z"
       id="path43"
       style="fill:#f9f9f9" />
    <path
       d="M3645 6051 c-74 -147 -193 -333 -281 -436 -67 -79 -64 -99 5 -28 107 111 361 533 321 533 -5 0 -25 -31 -45 -69z"
       id="path44"
       style="fill:#f9f9f9" />
    <path
       d="M2766 5920 c-25 -27 -46 -55 -46 -62 1 -13 74 63 91 94 16 29 5 21 -45 -32z"
       id="path45"
       style="fill:#f9f9f9" />
    <path
       d="M3295 5823 c-69 -73 -230 -348 -223 -380 2 -11 22 17 52 74 57 111 180 298 202 311 11 6 13 12 6 16 -6 3 -23 -6 -37 -21z"
       id="path46"
       style="fill:#f9f9f9" />
    <path
       d="M4190 5769 c0 -19 9 -72 20 -119 25 -110 26 -198 3 -216 -17 -12 -17 -13 3 -14 28 0 34 17 34 91 0 54 -42 275 -55 287 -3 3 -5 -10 -5 -29z"
       id="path47"
       style="fill:#f9f9f9" />
    <path
       d="M3332 5448 c-17 -22 -54 -100 -49 -104 5 -5 77 99 77 110 0 11 -17 6 -28 -6z"
       id="path48"
       style="fill:#f9f9f9" />
    <path
       d="M1940 4666 c0 -13 32 -77 37 -73 8 8 -17 77 -28 77 -5 0 -9 -2 -9 -4z"
       id="path49"
       style="fill:#f9f9f9" />
    <path
       d="M3781 1404 c-24 -30 -26 -40 -9 -50 7 -4 8 -3 4 5 -4 6 2 25 14 41 26 37 19 40 -9 4z"
       id="path50"
       style="fill:#f9f9f9" />
    <path
       d="M3811 1249 c-6 -18 -11 -48 -10 -68 1 -30 3 -25 15 28 15 70 13 91 -5 40z"
       id="path51"
       style="fill:#f9f9f9" />
    <path
       d="M2281 1247 c-1 -10 6 -32 15 -50 22 -42 264 -403 264 -394 0 17 -37 78 -141 234 -60 89 -115 177 -123 195 -9 21 -15 26 -15 15z"
       id="path52"
       style="fill:#f9f9f9" />
    <path
       d="M3299 1066 c-3 -25 -1 -46 2 -46 12 0 21 72 11 82 -6 6 -11 -7 -13 -36z"
       id="path53"
       style="fill:#f9f9f9" />
    <path
       d="M3886 1080 c9 -36 161 -341 185 -370 20 -25 -41 107 -103 225 -18 33 -45 85 -60 115 -16 30 -25 44 -22 30z"
       id="path54"
       style="fill:#f9f9f9" />
    <path
       d="M2991 1039 c-86 -57 -167 -134 -198 -186 -36 -62 -23 -64 16 -2 41 62 215 209 249 209 5 0 42 -25 83 -55 96 -71 123 -72 31 -1 -65 50 -104 76 -115 76 -3 0 -32 -18 -66 -41z"
       id="path55"
       style="fill:#f9f9f9" />
    <path
       d="M2141 916 c-1 -31 50 -217 71 -260 26 -50 95 -117 162 -155 78 -45 81 -38 5 13 -36 24 -86 67 -111 94 -39 45 -49 65 -77 164 -44 152 -49 168 -50 144z"
       id="path56"
       style="fill:#f9f9f9" />
    <path
       d="M4118 885 c-3 -6 -8 -26 -12 -45 l-6 -35 16 34 c14 30 16 68 2 46z"
       id="path57"
       style="fill:#f9f9f9" />
    <path
       d="M2660 606 c0 -33 40 -104 78 -137 95 -84 222 -106 324 -56 31 15 58 33 61 40 2 7 -22 -1 -54 -17 -85 -42 -153 -41 -240 1 -75 37 -97 58 -138 133 -18 33 -31 47 -31 36z"
       id="path58"
       style="fill:#f9f9f9" />
    <path
       d="M3876 578 c-3 -7 -7 -30 -10 -51 -12 -89 -70 -147 -148 -147 -22 0 -62 13 -102 34 -52 27 -62 30 -53 15 19 -31 105 -69 155 -69 93 0 153 63 168 178 6 47 -1 72 -10 40z"
       id="path59"
       style="fill:#f9f9f9" />
    <path
       d="M4033 438 c-28 -20 -32 -29 -31 -63 1 -33 2 -35 5 -10 3 19 18 42 41 62 43 37 32 44 -15 11z"
       id="path60"
       style="fill:#f9f9f9" />
    <path
       d="M2455 330 c-10 -22 -16 -43 -13 -46 3 -2 13 14 22 37 22 54 15 61 -9 9z"
       id="path61"
       style="fill:#f9f9f9" />
    <path
       d="M3571 238 c-43 -21 -101 -88 -101 -115 0 -8 15 5 33 28 42 56 75 79 134 95 46 12 47 13 13 13 -19 1 -55 -9 -79 -21z"
       id="path62"
       style="fill:#f9f9f9" />
    <path
       d="M3380 1556 c0 -5 7 -17 15 -26 13 -14 13 -21 -5 -55 -21 -41 -25 -120 -10 -180 5 -21 8 -5 9 55 1 64 6 96 21 125 l20 39 -25 25 c-14 14 -25 22 -25 17z"
       id="path63"
       style="fill:#f9f9f9" />
    <path
       d="M3897 5266 c-63 -26 -79 -36 -56 -36 17 0 119 47 119 55 0 7 3 8 -63 -19z"
       id="path64"
       style="fill:#f9f9f9" />
    <path
       d="M4085 5103 c9 -37 69 -125 97 -142 26 -16 28 -20 -30 54 -17 22 -38 57 -47 78 -18 43 -30 49 -20 10z"
       id="path65"
       style="fill:#f9f9f9" />
    <path
       d="M3620 4966 c0 -3 46 -41 102 -87 l102 -82 126 7 c122 7 127 6 185 -20 39 -18 81 -29 120 -31 l60 -3 -57 15 c-31 8 -85 26 -119 40 -59 25 -66 26 -188 19 l-127 -7 -94 77 c-86 69 -110 84 -110 72z"
       id="path66"
       style="fill:#f9f9f9" />
    <path
       d="M3339 4923 c-75 -83 -165 -203 -209 -278 -31 -53 -17 -40 44 44 28 37 67 88 87 112 45 55 112 149 107 149 -2 0 -15 -12 -29 -27z"
       id="path67"
       style="fill:#f9f9f9" />
    <path
       d="M2694 4711 c-87 -80 -168 -165 -214 -227 -41 -54 -131 -158 -200 -232 -69 -74 -139 -154 -157 -179 -35 -49 -54 -118 -52 -191 l1 -47 9 45 c33 169 33 169 209 355 68 71 150 166 182 210 33 44 133 151 222 237 88 87 156 158 150 158 -6 0 -73 -58 -150 -129z"
       id="path68"
       style="fill:#f9f9f9" />
    <path
       d="M3013 4803 c-45 -59 -88 -131 -126 -213 -118 -252 -143 -303 -189 -379 -28 -46 -75 -118 -105 -160 -66 -91 -114 -184 -147 -283 -26 -78 -50 -260 -44 -343 2 -37 8 -10 21 105 28 230 66 332 201 530 95 138 178 287 230 413 54 128 86 191 147 289 26 43 46 78 44 78 -2 0 -16 -17 -32 -37z"
       id="path69"
       style="fill:#f9f9f9" />
    <path
       d="M3502 4695 c-17 -37 -14 -45 4 -12 9 16 14 31 11 33 -2 2 -9 -7 -15 -21z"
       id="path70"
       style="fill:#f9f9f9" />
    <path
       d="M4365 4635 c-44 -19 -89 -38 -100 -41 -11 -3 -55 -22 -98 -41 -55 -24 -89 -34 -110 -30 -61 8 -261 68 -330 98 -38 17 -71 28 -74 25 -9 -9 113 -61 212 -91 50 -15 111 -33 137 -41 66 -20 85 -18 156 16 35 17 69 30 76 30 7 0 23 -25 35 -55 23 -55 88 -132 130 -155 21 -11 22 -10 11 10 -7 12 -24 29 -40 38 -29 17 -78 86 -97 138 l-11 31 86 39 c76 33 99 39 187 44 83 4 93 6 60 12 -87 16 -147 9 -230 -27z"
       id="path71"
       style="fill:#f9f9f9" />
    <path
       d="M4486 4538 c-24 -40 -24 -43 -8 -71 25 -41 73 -99 79 -93 3 3 -12 31 -34 63 l-40 58 23 35 c25 39 29 50 15 50 -6 0 -21 -19 -35 -42z"
       id="path72"
       style="fill:#f9f9f9" />
    <path
       d="M4380 4520 c0 -11 5 -20 10 -20 6 0 10 9 10 20 0 11 -4 20 -10 20 -5 0 -10 -9 -10 -20z"
       id="path73"
       style="fill:#f9f9f9" />
    <path
       d="M4450 4399 c0 -17 27 -45 35 -37 3 3 -3 16 -14 29 -16 19 -20 20 -21 8z"
       id="path74"
       style="fill:#f9f9f9" />
    <path
       d="M4062 4230 c1 -110 3 -132 8 -90 11 75 11 191 0 215 -5 12 -8 -36 -8 -125z"
       id="path75"
       style="fill:#f9f9f9" />
    <path
       d="M3439 4205 c-120 -265 -246 -853 -263 -1225 l-5 -115 14 123 c25 216 56 412 92 587 41 199 129 514 172 617 39 92 31 103 -10 13z"
       id="path76"
       style="fill:#f9f9f9" />
    <path
       d="M3036 4078 c-99 -258 -174 -523 -181 -643 l-4 -80 9 66 c16 109 66 292 145 523 41 121 73 221 71 223 -2 2 -20 -38 -40 -89z"
       id="path77"
       style="fill:#f9f9f9" />
    <path
       d="M3821 4123 c-6 -26 -18 -203 -26 -393 -8 -190 -19 -428 -25 -530 -12 -216 -25 -977 -17 -970 3 3 10 178 16 390 6 212 18 527 26 700 8 173 17 398 20 500 3 102 10 220 16 264 12 89 6 110 -10 39z"
       id="path78"
       style="fill:#f9f9f9" />
    <path
       d="M2729 4057 c-33 -71 -95 -263 -141 -437 -24 -92 -31 -143 -35 -255 -3 -77 -2 -137 2 -133 4 4 8 53 10 110 1 57 12 148 24 203 25 121 122 444 156 520 33 76 21 69 -16 -8z"
       id="path79"
       style="fill:#f9f9f9" />
    <path
       d="M4066 3730 c-18 -156 -73 -440 -125 -645 -46 -186 -47 -241 -1 -75 43 155 111 460 129 575 12 80 26 295 19 295 -2 0 -12 -67 -22 -150z"
       id="path80"
       style="fill:#f9f9f9" />
    <path
       d="M3550 3548 c0 -3 -9 -49 -20 -101 -69 -338 -102 -757 -80 -1034 15 -198 30 -287 22 -128 -20 364 -1 725 58 1085 16 96 27 176 24 179 -2 2 -4 2 -4 -1z"
       id="path81"
       style="fill:#f9f9f9" />
    <path
       d="M2673 3103 c-87 -117 -171 -259 -160 -270 3 -2 18 17 33 44 15 26 53 86 84 133 111 169 131 210 43 93z"
       id="path82"
       style="fill:#f9f9f9" />
    <path
       d="M3051 2974 c-39 -150 -60 -442 -43 -594 20 -174 55 -269 178 -472 78 -130 108 -160 178 -178 26 -7 28 -7 12 3 -100 64 -149 129 -251 332 -67 132 -93 231 -101 379 -7 115 7 336 30 479 15 89 13 112 -3 51z"
       id="path83"
       style="fill:#f9f9f9" />
    <path
       d="M2855 2758 c-88 -75 -252 -208 -284 -229 -15 -9 -20 -18 -14 -22 13 -8 121 73 258 193 78 68 130 123 113 119 -2 0 -34 -27 -73 -61z"
       id="path84"
       style="fill:#f9f9f9" />
    <path
       d="M2745 2464 c-87 -70 -194 -130 -253 -139 -50 -9 -66 -14 -59 -21 12 -12 125 20 190 54 38 20 101 66 140 103 40 38 70 68 67 68 -3 0 -41 -29 -85 -65z"
       id="path85"
       style="fill:#f9f9f9" />
    <path
       d="M2816 2276 c-14 -114 -2 -270 27 -349 31 -85 60 -126 142 -206 l65 -63 -30 -38 c-17 -21 -42 -40 -57 -43 -23 -4 -204 8 -233 16 -4 1 -9 -2 -9 -8 -2 -13 79 -24 186 -26 92 -2 101 2 140 65 l25 39 -65 66 c-142 145 -166 207 -176 451 -6 155 -7 161 -15 96z"
       id="path86"
       style="fill:#f9f9f9" />
  </g>
</svg>
